<?xml version="1.0" encoding="utf-8"?>
<!-- Generator: Adobe Illustrator 23.0.1, SVG Export Plug-In . SVG Version: 6.00 Build 0)  -->
<svg version="1.1" xmlns="http://www.w3.org/2000/svg" xmlns:xlink="http://www.w3.org/1999/xlink" x="0px" y="0px"
	 viewBox="0 0 1366 768" style="enable-background:new 0 0 1366 768;" xml:space="preserve">
<style type="text/css">
	.st0{fill:none;stroke:#FF0000;stroke-width:3;stroke-miterlimit:10;}
	.st1{fill:none;stroke:#FF0000;stroke-width:1.5;stroke-miterlimit:10;}
	.st2{fill:#FFFFFF;stroke:#000000;stroke-miterlimit:10;}
</style>
<g id="Layer_2">
	<g>
		<path class="st0" d="M723,695c-0.5,0-1-0.5-1-1V300c0-0.5-0.4-1.2-0.9-1.4l-27.2-12.2c-0.5-0.2-0.9-0.9-0.9-1.4v-43
			c0-0.6,0.4-1.3,0.8-1.6l27.4-20.8c0.4-0.3,0.8-1.1,0.8-1.6v-55c0-0.6,0.4-1.1,1-1.3l8.1-2.4c0.5-0.2,1.1-0.7,1.3-1.2l5.3-13.1
			c0.2-0.5,0.8-0.9,1.4-0.9h9c0.5,0,1-0.4,1-1v-6c0-0.6,0.5-1,1-1l0,0c0.5,0,1-0.4,1-1V89c0-0.6,0.5-1,1-1l0,0c0.5,0,1,0.4,1,1v45
			c0,0.6,0.4,1,1,1.1l13,0.9c0.5,0,1,0.5,1,1.1v1c0,0.6,0.5,1,1,1h11c0.5,0,1,0.4,1,1v1c0,0.6,0.5,1,1,1h2c0.5,0,1,0.4,1,1v2
			c0,0.6,0.5,1,1,1h7c0.5,0,1,0.4,1,1v1c0,0.6,0.5,1,1,1l0,0c0.5,0,1,0.4,1,1l-0.5,67.5c0,0.5,0.4,1.1,0.9,1.3l20.1,6.4
			c0.5,0.2,0.9,0.8,0.9,1.3L817,241c0,0.5,0.4,1.2,0.9,1.4l105.2,43.2c0.5,0.2,0.9-0.1,0.9-0.6v-1.5c0-0.5,0.5-1,1-1h1.5
			c0.5,0,1-0.5,1-1v-14c0-0.5-0.5-1-1-1h-1c-0.5,0-1-0.5-1-1v-6c0-0.5,0.5-1,1-1l0,0c0.5,0,1-0.5,1-1v-16c0-0.6,0.4-1.2,0.9-1.3
			l39.1-14.3c0.5-0.2,1.3-0.1,1.7,0.3l12.4,9.8c0.4,0.3,1.2,0.4,1.7,0.2l15.2-7.1c0.5-0.2,1.3-0.2,1.7,0.1l74.3,49.9
			c0.5,0.3,0.8,1,0.8,1.6v52c0,0.5,0.4,1.2,0.9,1.5l11.2,6.1c0.5,0.3,0.9,0.9,0.9,1.5v29c0,0.5-0.2,1.4-0.5,1.9l-11,18.3
			c-0.3,0.5-0.9,0.7-1.4,0.4l-85.2-42.1c-0.5-0.2-1.3-0.4-1.9-0.2l-17,3.6c-0.5,0.1-1.2,0.6-1.5,1.1l-4,7.3c-0.3,0.5-0.9,1-1.5,1.1
			l-47.1,11.5c-0.5,0.1-1.4,0.1-1.9-0.1l-125.1-48.3c-0.5-0.2-0.9,0.1-0.9,0.6l7,348c0,0.5-0.4,1.3-0.8,1.6l-29.3,19.9
			c-0.5,0.3-1.3,0.6-1.8,0.5L723,695z"/>
	</g>
</g>
<g id="Layer_3">
	<line class="st0" x1="762.5" y1="667.5" x2="759.5" y2="289.5"/>
	<polyline class="st0" points="787.5,216.5 748.5,206.5 741.5,214.5 732.5,211.5 727.5,216.5 	"/>
	<path class="st0" d="M787.5,292.5"/>
	<polyline class="st0" points="701.5,273.5 733.5,246.5 740.5,246.5 749.5,240.5 812.5,261.5 787.5,279.5 	"/>
	<polyline class="st0" points="727.5,292.5 750.5,273.5 766.5,273.5 783.5,278.5 	"/>
	<line class="st0" x1="787.5" y1="292.5" x2="964.5" y2="361.5"/>
	<line class="st0" x1="787.5" y1="287.5" x2="787.5" y2="314.5"/>
	<polyline class="st0" points="932.5,289.5 956.5,297.5 997.5,289.5 1065.5,327.5 	"/>
	<line class="st0" x1="980.5" y1="241" x2="980.5" y2="269"/>
	<line class="st0" x1="967.5" y1="241" x2="967.5" y2="280"/>
	<line class="st0" x1="999.5" y1="238" x2="999.5" y2="275"/>
	<path class="st0" d="M974.5,444.5"/>
	<polyline class="st0" points="990.5,340.5 999.5,320.5 1079.5,364.5 	"/>
	<line class="st0" x1="999.5" y1="320.5" x2="959.5" y2="333.5"/>
	<line class="st0" x1="821.5" y1="280.5" x2="944.5" y2="330.5"/>
	<line class="st0" x1="755.5" y1="198.5" x2="755.5" y2="144.5"/>
	<line class="st0" x1="739.5" y1="157.5" x2="739.5" y2="206.5"/>
	<g>
		<path class="st1" d="M708.5,256.5l-9.2,6.4c-0.5,0.3-0.8,0.1-0.8-0.4v-19"/>
	</g>
	<g>
		<path class="st1" d="M755.5,216.5v14c0,0.6,0.4,1.1,1,1.3l9,2.7"/>
	</g>
	<g>
		<path class="st1" d="M771.5,217.5v17c0,0.6,0.4,1.1,0.9,1.3l22.1,7.7"/>
	</g>
	<path class="st0" d="M812.5,246.5"/>
	<g>
		<path class="st1" d="M714.5,231v19c0,0.6,0.4,0.7,0.8,0.4l9.2-6.4"/>
	</g>
	<g>
		<path class="st1" d="M799.5,230v14c0,0.6,0.4,1.1,1,1.3l9,2.7"/>
	</g>
	<path class="st2" d="M953.5,186.5"/>
	<g>
		<path class="st1" d="M732.5,236.5c0,0.6,0.4,1.1,1,1.1l5,0.7c0.5,0.1,1.4-0.1,1.8-0.4l4.3-2.9c0.5-0.3,0.8-1,0.8-1.6v-15
			c0-0.6-0.3-0.6-0.6-0.2l-1.8,2.4c-0.3,0.4-1,0.6-1.5,0.4l-8.1-3.3c-0.5-0.2-0.9,0.1-0.9,0.6V236.5z"/>
	</g>
	<path class="st0" d="M719.5,129.5"/>
</g>
</svg>
