<?xml version="1.0" encoding="utf-8"?>
<!-- Generator: Adobe Illustrator 23.0.1, SVG Export Plug-In . SVG Version: 6.00 Build 0)  -->
<svg version="1.1" id="Layer_1" xmlns="http://www.w3.org/2000/svg" xmlns:xlink="http://www.w3.org/1999/xlink" x="0px" y="0px"
	 viewBox="0 0 657 192" style="enable-background:new 0 0 657 192;" xml:space="preserve">
<style type="text/css">
	.st0{fill:#FFFFFF;}
	.st1{fill:#007EC3;}
	.st2{fill:none;stroke:#007EC3;stroke-width:4;stroke-miterlimit:10;}
	.st3{fill:none;stroke:#007EC3;stroke-width:3;stroke-linecap:round;stroke-miterlimit:10;}
	.st4{fill:none;stroke:#007EC3;stroke-miterlimit:10;}
	.st5{fill:none;stroke:#007EC3;stroke-width:3;stroke-miterlimit:10;}
</style>
<rect x="0" y="0" class="st0" width="657" height="192"/>
<g>
	<g>
		<path d="M100.2,107.4l-3.1,7.2c-2.5-0.9-5.1-1.4-8-1.4c-2.2,0-3.8,0.4-4.7,1.2c-0.9,0.8-1.4,2.1-1.4,4v5h12.1l-1.2,7.7H83v27.2H72
			v-27.2h-7.8v-7.7H72V118c0-2.5,0.6-4.7,1.8-6.7c1.2-2,2.9-3.5,5.3-4.6c2.3-1.1,5.1-1.7,8.4-1.7C92.3,105,96.6,105.8,100.2,107.4z"
			/>
		<path d="M116.9,146.5c0,1.7,0.3,3,0.9,3.7c0.6,0.7,1.6,1.1,2.8,1.1c1.1,0,2.3-0.4,3.4-1.1c1.1-0.7,2.1-1.7,2.9-2.9V121h11.1v37.3
			h-9.7L128,154c-1.2,1.8-2.9,3.1-4.9,4.1c-2,1-4.2,1.4-6.5,1.4c-3.5,0-6.2-1-8-3.1c-1.8-2-2.7-4.9-2.7-8.5V121h11.1V146.5z"/>
		<path d="M148,158.3V121h9.7l0.8,4.3c1.7-1.9,3.5-3.3,5.3-4.2c1.8-0.9,3.9-1.4,6.3-1.4c3.2,0,5.7,1,7.5,2.9c1.8,2,2.7,4.7,2.7,8.2
			v27.4h-11.1v-24.2c0-1.5-0.1-2.8-0.3-3.7c-0.2-0.9-0.6-1.5-1.1-1.9c-0.5-0.4-1.2-0.6-2.1-0.6c-1.1,0-2.2,0.4-3.3,1.1
			c-1.1,0.7-2.1,1.8-3.2,3.2v26.1H148z"/>
		<path d="M214,149.9c1.3-0.5,2.7-1.3,4.2-2.4l5,7c-1.8,1.5-3.8,2.7-6.2,3.6c-2.4,0.9-4.9,1.3-7.7,1.3c-4,0-7.4-0.8-10.3-2.5
			c-2.9-1.6-5.1-3.9-6.7-6.9c-1.5-2.9-2.3-6.4-2.3-10.3c0-3.9,0.8-7.3,2.4-10.4c1.6-3,3.9-5.4,6.8-7.1c2.9-1.7,6.4-2.6,10.3-2.6
			c2.8,0,5.3,0.4,7.5,1.2c2.2,0.8,4.3,1.9,6.2,3.5l-4.8,6.7c-2.7-1.9-5.5-2.8-8.4-2.8c-2.6,0-4.7,0.9-6.2,2.8
			c-1.5,1.8-2.2,4.8-2.2,8.8c0,3.9,0.7,6.7,2.2,8.3c1.5,1.7,3.5,2.5,6.1,2.5C211.3,150.8,212.7,150.5,214,149.9z"/>
		<path d="M233.7,121H255v29.7h9.5v7.6h-31.1v-7.6h10.6v-22.1h-10.2V121z M251.7,102.3c1,0.6,1.8,1.3,2.3,2.2c0.6,0.9,0.8,2,0.8,3.2
			c0,1.2-0.3,2.2-0.8,3.2c-0.6,1-1.3,1.7-2.3,2.3c-1,0.6-2.1,0.8-3.4,0.8c-1.3,0-2.4-0.3-3.4-0.8c-1-0.5-1.8-1.3-2.4-2.3
			c-0.6-1-0.8-2-0.8-3.2c0-1.2,0.3-2.2,0.8-3.2c0.6-0.9,1.3-1.7,2.4-2.2c1-0.5,2.1-0.8,3.4-0.8S250.7,101.8,251.7,102.3z"/>
		<path d="M300.3,122.2c2.7,1.6,4.8,3.9,6.2,6.9c1.4,3,2.1,6.4,2.1,10.4c0,4.1-0.7,7.7-2.2,10.7c-1.4,3-3.5,5.3-6.2,6.9
			c-2.7,1.6-6,2.4-9.7,2.4c-3.8,0-7-0.8-9.8-2.4c-2.7-1.6-4.8-3.8-6.2-6.8c-1.4-3-2.1-6.5-2.1-10.7c0-4,0.7-7.4,2.2-10.4
			c1.4-3,3.5-5.3,6.2-7c2.7-1.7,6-2.5,9.7-2.5C294.3,119.8,297.5,120.6,300.3,122.2z M285.5,130.8c-1.1,1.9-1.6,4.8-1.6,8.8
			c0,4.1,0.5,7.1,1.6,8.9c1.1,1.9,2.8,2.8,5.1,2.8c2.3,0,4-0.9,5.1-2.8c1.1-1.9,1.6-4.9,1.6-9c0-4-0.5-6.9-1.6-8.8
			c-1.1-1.9-2.8-2.8-5-2.8C288.2,128,286.6,128.9,285.5,130.8z"/>
		<path class="st1" d="M329.5,121c-0.7-1.9-1.5-3.3-2.4-4.4c-0.9-1.1-2.1-1.9-3.5-2.5c-1.5-0.6-3.5-1.1-6-1.5l1.3-7.6
			c4.7,0.6,8.5,1.6,11.3,3c2.8,1.4,5,3.6,6.6,6.4c1.7,2.8,3.1,6.7,4.3,11.8c1.3,5.2,2.5,9.6,3.7,13.2c1.2,3.6,2.5,6.8,3.8,9.4
			c1.3,2.6,2.8,5,4.5,7.1l-11,3.5c-1.6-2.4-3-5-4.2-7.8c-1.2-2.8-2.2-6-3.1-9.6c-0.9-3.6-1.7-8-2.6-13.2l-7.8,30.6l-11-2.6
			l12.4-35.9H329.5z"/>
		<path d="M390,147.6c0,1.4,0.2,2.4,0.6,3c0.4,0.6,1,1.1,1.9,1.5l-2.3,7.3c-2.3-0.2-4.1-0.7-5.6-1.5c-1.5-0.8-2.7-1.9-3.5-3.4
			c-1.4,1.7-3.2,2.9-5.4,3.8c-2.2,0.9-4.5,1.3-6.9,1.3c-2.5,0-4.7-0.5-6.7-1.5c-1.9-1-3.4-2.4-4.4-4.1c-1-1.8-1.5-3.8-1.5-6.1
			c0-2.7,0.7-5,2.1-6.8c1.4-1.9,3.5-3.3,6.2-4.3c2.7-1,6-1.5,9.8-1.5h5v-1.4c0-3.8-2.5-5.7-7.4-5.7c-1.2,0-2.8,0.2-4.7,0.5
			c-1.9,0.4-3.7,0.8-5.5,1.4l-2.6-7.4c2.3-0.9,4.8-1.6,7.4-2.1c2.6-0.5,5-0.7,7.1-0.7c5.5,0,9.6,1.1,12.3,3.3c2.7,2.2,4,5.5,4,9.8
			V147.6z M376.4,150.5c1.3-0.7,2.3-1.7,2.9-3v-6h-2.7c-3,0-5.3,0.5-6.8,1.4c-1.5,0.9-2.2,2.3-2.2,4.2c0,1.5,0.4,2.6,1.3,3.4
			c0.9,0.8,2.1,1.2,3.7,1.2C373.9,151.6,375.1,151.2,376.4,150.5z"/>
		<path d="M420.2,146.6c0,1.5,0.4,2.5,1.2,3.2c0.8,0.7,2,1,3.6,1c1.7,0,3.4-0.4,5.3-1.1l2.7,7.4c-3.1,1.6-6.7,2.5-10.8,2.5
			c-4.4,0-7.6-1.3-9.8-3.8c-2.2-2.5-3.2-6-3.2-10.5v-31.4h-11v-7.6h22.1V146.6z"/>
		<path d="M471,105.3c3.2,2.4,5.5,5.7,6.9,10c1.4,4.3,2.1,9.5,2.1,15.7c0,6.3-0.3,11.4-0.9,15.3c-0.6,3.9-1.7,6.9-3.4,9
			c-1.6,2-3.9,3.1-6.8,3.1c-2.5,0-4.5-0.9-5.9-2.7c-1.4-1.8-2.2-4.1-2.6-7h-0.3c-0.8,1.9-2.1,3.5-3.8,4.7c-1.7,1.2-3.7,1.8-6.1,1.8
			c-3.9,0-6.8-1.4-8.6-4.3c-1.8-2.9-2.7-6.8-2.7-11.7c0-5.9,1.2-10.6,3.7-13.9c2.5-3.3,6.2-5,11.2-5c1.9,0,3.9,0.3,5.9,0.8
			c2,0.5,4,1.3,5.9,2.3v21.1c0,2.6,0.2,4.4,0.7,5.4c0.4,1.1,1.2,1.6,2.1,1.6c0.9,0,1.5-0.6,1.9-1.9c0.4-1.3,0.7-3.2,0.8-5.9
			c0.1-2.6,0.2-6.7,0.2-12.1c0-5.2-0.4-9.5-1.2-12.8c-0.8-3.3-2.2-5.8-4.2-7.5c-2-1.7-4.9-2.6-8.5-2.6c-2.6,0-5.1,0.5-7.6,1.5
			c-2.5,1-5.1,2.7-7.7,4.9l-4.4-5.2c3.2-2.8,6.4-4.9,9.7-6.2c3.3-1.3,6.8-1.9,10.6-1.9C463.5,101.8,467.8,102.9,471,105.3z
			 M450.9,128.3c-0.7,0.7-1.2,2-1.4,3.7c-0.3,1.7-0.4,4.1-0.4,7.2c0,2.2,0.1,3.9,0.3,5.2c0.2,1.3,0.6,2.3,1.1,2.9
			c0.5,0.6,1.2,0.9,2,0.9c1.4,0,2.4-0.5,2.9-1.4c0.5-0.9,0.9-2.1,1.1-3.6v-15.4c-0.5-0.2-0.9-0.4-1.3-0.5c-0.4-0.1-0.9-0.2-1.4-0.2
			C452.5,127.1,451.5,127.5,450.9,128.3z"/>
		<path d="M504.5,150.7c1.1-0.6,1.7-1.5,1.7-2.6c0-0.8-0.2-1.5-0.7-2c-0.4-0.5-1.3-1-2.5-1.5c-1.2-0.5-3.1-1.1-5.7-1.8
			c-3.7-1-6.6-2.4-8.6-4.1s-3-4.2-3-7.3c0-2.2,0.6-4.2,1.9-6c1.3-1.7,3.1-3.1,5.5-4.1c2.4-1,5.4-1.5,8.8-1.5c5.9,0,11,1.5,15.1,4.5
			l-4.4,6.5c-1.6-1-3.3-1.8-5.1-2.3c-1.8-0.6-3.5-0.8-5.3-0.8c-1.8,0-3.1,0.2-4,0.7c-0.9,0.5-1.3,1.2-1.3,2.2c0,0.7,0.2,1.2,0.7,1.7
			c0.5,0.4,1.3,0.9,2.5,1.4c1.2,0.5,3.1,1.1,5.6,1.8c2.7,0.7,4.9,1.6,6.6,2.5c1.7,0.9,3,2.1,3.9,3.6c0.9,1.5,1.4,3.4,1.4,5.7
			c0,2.6-0.8,4.9-2.4,6.7c-1.6,1.9-3.7,3.3-6.4,4.2c-2.7,0.9-5.6,1.4-8.9,1.4c-3.5,0-6.6-0.5-9.4-1.5c-2.8-1-5.2-2.4-7.2-4.1
			l5.6-6.2c1.5,1.2,3.2,2.2,5.1,2.9c1.8,0.7,3.8,1.1,5.9,1.1C501.9,151.6,503.4,151.3,504.5,150.7z"/>
		<path d="M546.6,150.7c1.1-0.6,1.7-1.5,1.7-2.6c0-0.8-0.2-1.5-0.7-2c-0.4-0.5-1.3-1-2.5-1.5c-1.2-0.5-3.1-1.1-5.7-1.8
			c-3.7-1-6.6-2.4-8.6-4.1c-2-1.8-3-4.2-3-7.3c0-2.2,0.6-4.2,1.9-6c1.3-1.7,3.1-3.1,5.5-4.1c2.4-1,5.4-1.5,8.8-1.5
			c5.9,0,11,1.5,15.1,4.5l-4.4,6.5c-1.6-1-3.3-1.8-5.1-2.3c-1.8-0.6-3.5-0.8-5.3-0.8c-1.8,0-3.1,0.2-4,0.7c-0.9,0.5-1.3,1.2-1.3,2.2
			c0,0.7,0.2,1.2,0.7,1.7c0.5,0.4,1.3,0.9,2.5,1.4c1.2,0.5,3.1,1.1,5.6,1.8c2.7,0.7,4.9,1.6,6.6,2.5c1.7,0.9,3,2.1,3.9,3.6
			c0.9,1.5,1.4,3.4,1.4,5.7c0,2.6-0.8,4.9-2.4,6.7c-1.6,1.9-3.7,3.3-6.4,4.2c-2.7,0.9-5.6,1.4-8.9,1.4c-3.5,0-6.6-0.5-9.4-1.5
			c-2.8-1-5.2-2.4-7.2-4.1l5.6-6.2c1.5,1.2,3.2,2.2,5.1,2.9c1.8,0.7,3.8,1.1,5.9,1.1C544,151.6,545.5,151.3,546.6,150.7z"/>
		<path d="M600.7,147.6c0,1.4,0.2,2.4,0.6,3c0.4,0.6,1,1.1,1.9,1.5l-2.3,7.3c-2.3-0.2-4.1-0.7-5.6-1.5c-1.5-0.8-2.7-1.9-3.5-3.4
			c-1.4,1.7-3.2,2.9-5.4,3.8c-2.2,0.9-4.5,1.3-6.9,1.3c-2.5,0-4.7-0.5-6.7-1.5c-1.9-1-3.4-2.4-4.4-4.1c-1-1.8-1.5-3.8-1.5-6.1
			c0-2.7,0.7-5,2.1-6.8c1.4-1.9,3.5-3.3,6.2-4.3c2.7-1,6-1.5,9.8-1.5h5v-1.4c0-3.8-2.5-5.7-7.4-5.7c-1.2,0-2.8,0.2-4.7,0.5
			c-1.9,0.4-3.7,0.8-5.5,1.4l-2.6-7.4c2.3-0.9,4.8-1.6,7.4-2.1c2.6-0.5,5-0.7,7.1-0.7c5.5,0,9.6,1.1,12.3,3.3c2.7,2.2,4,5.5,4,9.8
			V147.6z M587.1,150.5c1.3-0.7,2.3-1.7,2.9-3v-6h-2.7c-3,0-5.3,0.5-6.8,1.4c-1.5,0.9-2.2,2.3-2.2,4.2c0,1.5,0.4,2.6,1.3,3.4
			c0.9,0.8,2.1,1.2,3.7,1.2C584.5,151.6,585.8,151.2,587.1,150.5z"/>
	</g>
	<g>
		<path class="st2" d="M142.5,87h-7l-0.3-17.7l-22.3-15l-5,2.4l-4.1-3.2l-12.1,4.4v5.3h-0.6v2.4H92v4.7h-1v1L59.5,58.2l0.1-4.9
			l-6.5-2.1l0.1-20.4h-0.6V30h-2.6v-1.2h-1.2V28h-3.8v-0.9l-4.4-0.3V13h-0.6v14.1h-0.6v2.4h-3.2l-1.8,4.4l-2.9,0.9v16.8L23,58v13.2
			l8.5,3.8l0,91.5v6h20h562.7c1.5,0,2.8-1.4,2.8-3.2V90.1c0-1.8-1.2-3.2-2.8-3.2H136.7"/>
		<g>
			<path class="st3" d="M52.1,146.5l-1-63c0-0.5,0.4-0.8,0.9-0.6l35.5,13.7c0.5,0.2,1.4,0.3,1.9,0.1l12.5-3.1
				c0.5-0.1,1.2-0.6,1.5-1.1l0.5-0.9c0.3-0.5,0.9-1,1.5-1.1l3.6-0.8c0.5-0.1,1.4,0,1.9,0.3l16.7,9"/>
		</g>
		<path class="st4" d="M43,153c-0.6-12.3,0.2-43.1-0.6-55.4c0-8.6-0.4-16.9,0.2-25.4"/>
		<polyline class="st4" points="50.8,50.7 39.3,47.8 37.3,50.2 34.6,49.3 33.1,50.7 		"/>
		<path class="st5" d="M50.8,73.1"/>
		<polyline class="st4" points="25.5,67.5 34.9,59.6 37,59.6 39.6,57.8 58.1,64 50.8,69.3 		"/>
		<polyline class="st4" points="33.1,73.1 39.9,67.5 44.6,67.5 49.6,69 		"/>
		<line class="st4" x1="50.8" y1="73.1" x2="102.8" y2="93.4"/>
		<line class="st4" x1="50.8" y1="71.6" x2="50.8" y2="79.6"/>
		<polyline class="st4" points="93.4,72.2 100.5,74.6 112.5,72.2 132.5,83.4 		"/>
		<line class="st4" x1="107.5" y1="58" x2="107.5" y2="66.2"/>
		<line class="st4" x1="103.7" y1="58" x2="103.7" y2="69.4"/>
		<line class="st4" x1="113.1" y1="57.1" x2="113.1" y2="68"/>
		<path class="st5" d="M105.8,117.8"/>
		<polyline class="st4" points="110.5,87.2 113.1,81.3 130.5,91 		"/>
		<line class="st4" x1="113.1" y1="81.3" x2="101.4" y2="85.2"/>
		<line class="st4" x1="60.8" y1="69.6" x2="97" y2="84.3"/>
		<line class="st4" x1="41.4" y1="45.5" x2="41.4" y2="29.6"/>
		<line class="st4" x1="36.7" y1="33.4" x2="36.7" y2="47.8"/>
		<path class="st5" d="M58.1,59.6"/>
		<path class="st5" d="M99.6,41.9"/>
		<path class="st5" d="M30.8,25.2"/>
	</g>
</g>
</svg>
