<?xml version="1.0" encoding="utf-8"?>
<!-- Generator: Adobe Illustrator 23.0.1, SVG Export Plug-In . SVG Version: 6.00 Build 0)  -->
<svg version="1.1" id="Layer_1" xmlns="http://www.w3.org/2000/svg" xmlns:xlink="http://www.w3.org/1999/xlink" x="0px" y="0px"
	 viewBox="0 0 1366 768" style="enable-background:new 0 0 1366 768;" xml:space="preserve">
<style type="text/css">
	.st0{fill:#007EC3;}
	.st1{opacity:0.76;}
	.st2{fill:none;stroke:#007EC3;stroke-width:3;stroke-miterlimit:10;}
	.st3{fill:none;stroke:#007EC3;stroke-miterlimit:10;}
	.st4{fill:#F2F2F2;}
	.st5{font-family:'FiraCode-Bold';}
	.st6{font-size:72px;}
	.st7{fill:none;stroke:#007EC3;stroke-width:4;stroke-miterlimit:10;}
	.st8{fill:none;stroke:#007EC3;stroke-width:3;stroke-linecap:round;stroke-miterlimit:10;}
	.st9{fill:none;}
	.st10{fill:#FFFFFF;}
	.st11{font-size:60px;}
</style>
<rect x="741.9" y="335" transform="matrix(1 -4.202018e-03 4.202018e-03 1 -1.764 4.3904)" width="604.1" height="174.1"/>
<g>
	<path d="M175.2,277.9l-3.1,7.2c-2.5-0.9-5.1-1.4-8-1.4c-2.2,0-3.8,0.4-4.7,1.2c-0.9,0.8-1.4,2.1-1.4,4v5h12.1l-1.2,7.7H158v27.2
		h-11v-27.2h-7.8v-7.7h7.8v-5.4c0-2.5,0.6-4.7,1.8-6.7c1.2-2,2.9-3.5,5.3-4.6c2.3-1.1,5.1-1.7,8.4-1.7
		C167.3,275.5,171.6,276.3,175.2,277.9z"/>
	<path d="M191.9,317c0,1.7,0.3,3,0.9,3.7c0.6,0.7,1.6,1.1,2.8,1.1c1.1,0,2.3-0.4,3.4-1.1c1.1-0.7,2.1-1.7,2.9-2.9v-26.2h11.1v37.3
		h-9.7l-0.5-4.4c-1.2,1.8-2.9,3.1-4.9,4.1c-2,1-4.2,1.4-6.5,1.4c-3.5,0-6.2-1-8-3.1c-1.8-2-2.7-4.9-2.7-8.5v-26.9h11.1V317z"/>
	<path d="M223,328.8v-37.3h9.7l0.8,4.3c1.7-1.9,3.5-3.3,5.3-4.2c1.8-0.9,3.9-1.4,6.3-1.4c3.2,0,5.7,1,7.5,2.9c1.8,2,2.7,4.7,2.7,8.2
		v27.4h-11.1v-24.2c0-1.5-0.1-2.8-0.3-3.7c-0.2-0.9-0.6-1.5-1.1-1.9c-0.5-0.4-1.2-0.6-2.1-0.6c-1.1,0-2.2,0.4-3.3,1.1
		c-1.1,0.7-2.1,1.8-3.2,3.2v26.1H223z"/>
	<path d="M289,320.4c1.3-0.5,2.7-1.3,4.2-2.4l5,7c-1.8,1.5-3.8,2.7-6.2,3.6c-2.4,0.9-4.9,1.3-7.7,1.3c-4,0-7.4-0.8-10.3-2.5
		c-2.9-1.6-5.1-3.9-6.7-6.9c-1.5-2.9-2.3-6.4-2.3-10.3c0-3.9,0.8-7.3,2.4-10.4c1.6-3,3.9-5.4,6.8-7.1c2.9-1.7,6.4-2.6,10.3-2.6
		c2.8,0,5.3,0.4,7.5,1.2c2.2,0.8,4.3,1.9,6.2,3.5l-4.8,6.7c-2.7-1.9-5.5-2.8-8.4-2.8c-2.6,0-4.7,0.9-6.2,2.8
		c-1.5,1.8-2.2,4.8-2.2,8.8c0,3.9,0.7,6.7,2.2,8.3c1.5,1.7,3.5,2.5,6.1,2.5C286.3,321.3,287.7,321,289,320.4z"/>
	<path d="M308.7,291.5H330v29.7h9.5v7.6h-31.1v-7.6h10.6v-22.1h-10.2V291.5z M326.7,272.8c1,0.6,1.8,1.3,2.3,2.2s0.8,2,0.8,3.2
		c0,1.2-0.3,2.2-0.8,3.2s-1.3,1.7-2.3,2.3c-1,0.6-2.1,0.8-3.4,0.8c-1.3,0-2.4-0.3-3.4-0.8c-1-0.5-1.8-1.3-2.4-2.3
		c-0.6-1-0.8-2-0.8-3.2c0-1.2,0.3-2.2,0.8-3.2c0.6-0.9,1.3-1.7,2.4-2.2c1-0.5,2.1-0.8,3.4-0.8C324.6,272,325.7,272.3,326.7,272.8z"
		/>
	<path d="M375.3,292.7c2.7,1.6,4.8,3.9,6.2,6.9c1.4,3,2.1,6.4,2.1,10.4c0,4.1-0.7,7.7-2.2,10.7c-1.4,3-3.5,5.3-6.2,6.9
		c-2.7,1.6-6,2.4-9.7,2.4c-3.8,0-7-0.8-9.8-2.4c-2.7-1.6-4.8-3.8-6.2-6.8c-1.4-3-2.1-6.5-2.1-10.7c0-4,0.7-7.4,2.2-10.4
		c1.4-3,3.5-5.3,6.2-7c2.7-1.7,6-2.5,9.7-2.5C369.3,290.3,372.5,291.1,375.3,292.7z M360.5,301.3c-1.1,1.9-1.6,4.8-1.6,8.8
		c0,4.1,0.5,7.1,1.6,8.9c1.1,1.9,2.8,2.8,5.1,2.8c2.3,0,4-0.9,5.1-2.8c1.1-1.9,1.6-4.9,1.6-9c0-4-0.5-6.9-1.6-8.8
		c-1.1-1.9-2.8-2.8-5-2.8C363.2,298.5,361.6,299.4,360.5,301.3z"/>
	<path class="st0" d="M404.5,291.5c-0.7-1.9-1.5-3.3-2.4-4.4c-0.9-1.1-2.1-1.9-3.5-2.5c-1.5-0.6-3.5-1.1-6-1.5l1.3-7.6
		c4.7,0.6,8.5,1.6,11.3,3c2.8,1.4,5,3.6,6.6,6.4c1.7,2.8,3.1,6.7,4.3,11.8c1.3,5.2,2.5,9.6,3.7,13.2c1.2,3.6,2.5,6.8,3.8,9.4
		c1.3,2.6,2.8,5,4.5,7.1l-11,3.5c-1.6-2.4-3-5-4.2-7.8c-1.2-2.8-2.2-6-3.1-9.6c-0.9-3.6-1.7-8-2.6-13.2l-7.8,30.6l-11-2.6l12.4-35.9
		H404.5z"/>
	<path d="M465,318.1c0,1.4,0.2,2.4,0.6,3c0.4,0.6,1,1.1,1.9,1.5l-2.3,7.3c-2.3-0.2-4.1-0.7-5.6-1.5c-1.5-0.8-2.7-1.9-3.5-3.4
		c-1.4,1.7-3.2,2.9-5.4,3.8c-2.2,0.9-4.5,1.3-6.9,1.3c-2.5,0-4.7-0.5-6.7-1.5c-1.9-1-3.4-2.4-4.4-4.1c-1-1.8-1.5-3.8-1.5-6.1
		c0-2.7,0.7-5,2.1-6.8c1.4-1.9,3.5-3.3,6.2-4.3c2.7-1,6-1.5,9.8-1.5h5v-1.4c0-3.8-2.5-5.7-7.4-5.7c-1.2,0-2.8,0.2-4.7,0.5
		c-1.9,0.4-3.7,0.8-5.5,1.4l-2.6-7.4c2.3-0.9,4.8-1.6,7.4-2.1c2.6-0.5,5-0.7,7.1-0.7c5.5,0,9.6,1.1,12.3,3.3c2.7,2.2,4,5.5,4,9.8
		V318.1z M451.4,321c1.3-0.7,2.3-1.7,2.9-3v-6h-2.7c-3,0-5.3,0.5-6.8,1.4c-1.5,0.9-2.2,2.3-2.2,4.2c0,1.5,0.4,2.6,1.3,3.4
		c0.9,0.8,2.1,1.2,3.7,1.2C448.9,322.1,450.1,321.7,451.4,321z"/>
	<path d="M495.2,317.1c0,1.5,0.4,2.5,1.2,3.2c0.8,0.7,2,1,3.6,1c1.7,0,3.4-0.4,5.3-1.1l2.7,7.4c-3.1,1.6-6.7,2.5-10.8,2.5
		c-4.4,0-7.6-1.3-9.8-3.8c-2.2-2.5-3.2-6-3.2-10.5v-31.4h-11v-7.6h22.1V317.1z"/>
	<path d="M546,275.8c3.2,2.4,5.5,5.7,6.9,10c1.4,4.3,2.1,9.5,2.1,15.7c0,6.3-0.3,11.4-0.9,15.3c-0.6,3.9-1.7,6.9-3.4,9
		c-1.6,2-3.9,3.1-6.8,3.1c-2.5,0-4.5-0.9-5.9-2.7c-1.4-1.8-2.2-4.1-2.6-7h-0.3c-0.8,1.9-2.1,3.5-3.8,4.7c-1.7,1.2-3.7,1.8-6.1,1.8
		c-3.9,0-6.8-1.4-8.6-4.3c-1.8-2.9-2.7-6.8-2.7-11.7c0-5.9,1.2-10.6,3.7-13.9c2.5-3.3,6.2-5,11.2-5c1.9,0,3.9,0.3,5.9,0.8
		c2,0.5,4,1.3,5.9,2.3v21.1c0,2.6,0.2,4.4,0.7,5.4c0.4,1.1,1.2,1.6,2.1,1.6c0.9,0,1.5-0.6,1.9-1.9c0.4-1.3,0.7-3.2,0.8-5.9
		c0.1-2.6,0.2-6.7,0.2-12.1c0-5.2-0.4-9.5-1.2-12.8c-0.8-3.3-2.2-5.8-4.2-7.5c-2-1.7-4.9-2.6-8.5-2.6c-2.6,0-5.1,0.5-7.6,1.5
		c-2.5,1-5.1,2.7-7.7,4.9l-4.4-5.2c3.2-2.8,6.4-4.9,9.7-6.2c3.3-1.3,6.8-1.9,10.6-1.9C538.5,272.3,542.8,273.4,546,275.8z
		 M525.9,298.8c-0.7,0.7-1.2,2-1.4,3.7c-0.3,1.7-0.4,4.1-0.4,7.2c0,2.2,0.1,3.9,0.3,5.2c0.2,1.3,0.6,2.3,1.1,2.9
		c0.5,0.6,1.2,0.9,2,0.9c1.4,0,2.4-0.5,2.9-1.4c0.5-0.9,0.9-2.1,1.1-3.6v-15.4c-0.5-0.2-0.9-0.4-1.3-0.5c-0.4-0.1-0.9-0.2-1.4-0.2
		C527.5,297.6,526.5,298,525.9,298.8z"/>
	<path d="M579.5,321.2c1.1-0.6,1.7-1.5,1.7-2.6c0-0.8-0.2-1.5-0.7-2c-0.4-0.5-1.3-1-2.5-1.5c-1.2-0.5-3.1-1.1-5.7-1.8
		c-3.7-1-6.6-2.4-8.6-4.1c-2-1.8-3-4.2-3-7.3c0-2.2,0.6-4.2,1.9-6c1.3-1.7,3.1-3.1,5.5-4.1c2.4-1,5.4-1.5,8.8-1.5
		c5.9,0,11,1.5,15.1,4.5l-4.4,6.5c-1.6-1-3.3-1.8-5.1-2.3c-1.8-0.6-3.5-0.8-5.3-0.8c-1.8,0-3.1,0.2-4,0.7c-0.9,0.5-1.3,1.2-1.3,2.2
		c0,0.7,0.2,1.2,0.7,1.7c0.5,0.4,1.3,0.9,2.5,1.4c1.2,0.5,3.1,1.1,5.6,1.8c2.7,0.7,4.9,1.6,6.6,2.5c1.7,0.9,3,2.1,3.9,3.6
		c0.9,1.5,1.4,3.4,1.4,5.7c0,2.6-0.8,4.9-2.4,6.7c-1.6,1.9-3.7,3.3-6.4,4.2c-2.7,0.9-5.6,1.4-8.9,1.4c-3.5,0-6.6-0.5-9.4-1.5
		c-2.8-1-5.2-2.4-7.2-4.1l5.6-6.2c1.5,1.2,3.2,2.2,5.1,2.9c1.8,0.7,3.8,1.1,5.9,1.1C576.9,322.1,578.4,321.8,579.5,321.2z"/>
	<path d="M621.6,321.2c1.1-0.6,1.7-1.5,1.7-2.6c0-0.8-0.2-1.5-0.7-2c-0.4-0.5-1.3-1-2.5-1.5c-1.2-0.5-3.1-1.1-5.7-1.8
		c-3.7-1-6.6-2.4-8.6-4.1c-2-1.8-3-4.2-3-7.3c0-2.2,0.6-4.2,1.9-6c1.3-1.7,3.1-3.1,5.5-4.1c2.4-1,5.4-1.5,8.8-1.5
		c5.9,0,11,1.5,15.1,4.5l-4.4,6.5c-1.6-1-3.3-1.8-5.1-2.3c-1.8-0.6-3.5-0.8-5.3-0.8c-1.8,0-3.1,0.2-4,0.7c-0.9,0.5-1.3,1.2-1.3,2.2
		c0,0.7,0.2,1.2,0.7,1.7c0.5,0.4,1.3,0.9,2.5,1.4c1.2,0.5,3.1,1.1,5.6,1.8c2.7,0.7,4.9,1.6,6.6,2.5c1.7,0.9,3,2.1,3.9,3.6
		c0.9,1.5,1.4,3.4,1.4,5.7c0,2.6-0.8,4.9-2.4,6.7c-1.6,1.9-3.7,3.3-6.4,4.2c-2.7,0.9-5.6,1.4-8.9,1.4c-3.5,0-6.6-0.5-9.4-1.5
		c-2.8-1-5.2-2.4-7.2-4.1l5.6-6.2c1.5,1.2,3.2,2.2,5.1,2.9c1.8,0.7,3.8,1.1,5.9,1.1C619,322.1,620.5,321.8,621.6,321.2z"/>
	<path d="M675.7,318.1c0,1.4,0.2,2.4,0.6,3c0.4,0.6,1,1.1,1.9,1.5l-2.3,7.3c-2.3-0.2-4.1-0.7-5.6-1.5c-1.5-0.8-2.7-1.9-3.5-3.4
		c-1.4,1.7-3.2,2.9-5.4,3.8c-2.2,0.9-4.5,1.3-6.9,1.3c-2.5,0-4.7-0.5-6.7-1.5c-1.9-1-3.4-2.4-4.4-4.1c-1-1.8-1.5-3.8-1.5-6.1
		c0-2.7,0.7-5,2.1-6.8c1.4-1.9,3.5-3.3,6.2-4.3c2.7-1,6-1.5,9.8-1.5h5v-1.4c0-3.8-2.5-5.7-7.4-5.7c-1.2,0-2.8,0.2-4.7,0.5
		c-1.9,0.4-3.7,0.8-5.5,1.4l-2.6-7.4c2.3-0.9,4.8-1.6,7.4-2.1c2.6-0.5,5-0.7,7.1-0.7c5.5,0,9.6,1.1,12.3,3.3c2.7,2.2,4,5.5,4,9.8
		V318.1z M662.1,321c1.3-0.7,2.3-1.7,2.9-3v-6h-2.7c-3,0-5.3,0.5-6.8,1.4c-1.5,0.9-2.2,2.3-2.2,4.2c0,1.5,0.4,2.6,1.3,3.4
		c0.9,0.8,2.1,1.2,3.7,1.2C659.5,322.1,660.8,321.7,662.1,321z"/>
</g>
<rect x="64" y="527" width="612" height="160"/>
<g class="st1">
	<g>
		<path class="st2" d="M568.5,646c0,0.5,0,1,0,1c0,0,0,0,0,0c6.9-0.5,19.6-1,19.6-1c0.5,0,1-0.5,1-1l-1-51c0-0.5,0.4-0.8,0.9-0.6
			l35.5,13.7c0.5,0.2,1.4,0.3,1.9,0.1l12.5-3.1c0.5-0.1,1.2-0.6,1.5-1.1l0.5-0.9c0.3-0.5,0.9-1,1.5-1.1l3.6-0.8
			c0.5-0.1,1.4,0,1.9,0.2l23.8,11.8c0.5,0.2,1.1,0.1,1.4-0.4l2.5-4.2c0.3-0.5,0.5-1.3,0.5-1.9v-7.1c0-0.6-0.4-1.2-0.9-1.5l-2.1-1.1
			c-0.5-0.3-0.9-0.9-0.9-1.5v-13.9c0-0.5-0.4-1.3-0.8-1.6l-20.7-13.9c-0.5-0.3-1.2-0.4-1.7-0.1l-3.2,1.5c-0.5,0.2-1.3,0.1-1.7-0.2
			l-2.5-2c-0.4-0.3-1.2-0.5-1.7-0.3l-10.2,3.7c-0.5,0.2-0.9,0.8-0.9,1.3v3.3c0,0.5-0.1,1-0.3,1c-0.2,0-0.3,0.5-0.3,1v0.4
			c0,0.5,0.2,1,0.4,1c0.2,0,0.4,0.5,0.4,1v2.7c0,0.5-0.2,1-0.5,1s-0.5,0.2-0.5,0.5c0,0.3-0.4,0.3-0.9,0.1l-29.6-12.2
			c-0.5-0.2-0.9-0.8-0.9-1.4l0.1-2.9c0-0.5-0.4-1.1-0.9-1.3l-4.6-1.5c-0.5-0.2-0.9-0.8-0.9-1.3l0.1-18.4c0-0.5-0.1-1-0.3-1
			c-0.2,0-0.3-0.2-0.3-0.4c0-0.2-0.5-0.4-1-0.4h-0.6c-0.6,0-1-0.3-1-0.6c0-0.3-0.3-0.6-0.6-0.6c-0.3,0-0.6-0.2-0.6-0.4
			c0-0.2-0.5-0.4-1-0.4h-1.8c-0.5,0-1-0.2-1-0.4c0-0.2-0.4-0.5-1-0.5l-2.4-0.2c-0.5,0-1-0.5-1-1.1v-11.8c0-0.5-0.1-1-0.3-1
			c-0.2,0-0.3,0.5-0.3,1v12.1c0,0.5-0.1,1-0.3,1c-0.2,0-0.3,0.5-0.3,1v0.4c0,0.5-0.5,1-1,1h-1.2c-0.5,0-1.2,0.4-1.4,0.9l-1,2.6
			c-0.2,0.5-0.8,1.1-1.3,1.2l-1,0.3c-0.5,0.2-1,0.7-1,1.3V561c0,0.5-0.4,1.3-0.8,1.6l-6.9,5.3c-0.4,0.3-0.8,1.1-0.8,1.6v11.2
			c0,0.5,0.4,1.2,0.9,1.4l6.7,3c0.5,0.2,0.9,0.9,0.9,1.4V646z"/>
	</g>
	<path class="st3" d="M580,645.1c-0.6-12.3,0.2-24.7-0.6-37c0-8.6-0.4-16.9,0.2-25.4"/>
	<polyline class="st3" points="587.8,561.2 576.3,558.3 574.3,560.7 571.6,559.8 570.1,561.2 	"/>
	<path class="st2" d="M587.8,583.6"/>
	<polyline class="st3" points="562.5,578 571.9,570.1 574,570.1 576.6,568.3 595.1,574.5 587.8,579.8 	"/>
	<polyline class="st3" points="570.1,583.6 576.9,578 581.6,578 586.6,579.5 	"/>
	<line class="st3" x1="587.8" y1="583.6" x2="639.8" y2="603.9"/>
	<line class="st3" x1="587.8" y1="582.1" x2="587.8" y2="590.1"/>
	<polyline class="st3" points="630.4,582.7 637.5,585.1 649.5,582.7 669.5,593.9 	"/>
	<line class="st3" x1="644.5" y1="568.5" x2="644.5" y2="576.7"/>
	<line class="st3" x1="640.7" y1="568.5" x2="640.7" y2="579.9"/>
	<line class="st3" x1="650.1" y1="567.6" x2="650.1" y2="578.5"/>
	<path class="st2" d="M642.8,628.3"/>
	<polyline class="st3" points="647.5,597.7 650.1,591.8 673.6,604.8 	"/>
	<line class="st3" x1="650.1" y1="591.8" x2="638.4" y2="595.7"/>
	<line class="st3" x1="597.8" y1="580.1" x2="634" y2="594.8"/>
	<line class="st3" x1="578.4" y1="556" x2="578.4" y2="540.1"/>
	<line class="st3" x1="573.7" y1="543.9" x2="573.7" y2="558.3"/>
	<path class="st2" d="M595.1,570.1"/>
	<path class="st2" d="M636.6,552.4"/>
	<path class="st2" d="M567.8,535.7"/>
</g>
<text transform="matrix(1 0 0 1 93.5239 647.0479)"><tspan x="0" y="0" class="st4 st5 st6">funcio</tspan><tspan x="265.8" y="0" class="st0 st5 st6">λ</tspan><tspan x="310.1" y="0" class="st4 st5 st6">al@ssa</tspan></text>
<g>
	<g>
		<path class="st7" d="M215.5,259.5h-6c-0.6,0-1-0.4-1-1l-0.3-15.7c0-0.5-0.4-1.3-0.8-1.6l-20.7-13.9c-0.5-0.3-1.2-0.4-1.7-0.1
			l-3.2,1.5c-0.5,0.2-1.3,0.1-1.7-0.2l-2.5-2c-0.4-0.3-1.2-0.5-1.7-0.3l-10.2,3.7c-0.5,0.2-0.9,0.8-0.9,1.3v3.3c0,0.6-0.1,1-0.3,1
			c-0.2,0-0.3,0.4-0.3,1v0.4c0,0.6,0.2,1,0.4,1s0.4,0.4,0.4,1v2.7c0,0.5-0.2,1-0.5,1c-0.3,0-0.5,0.2-0.5,0.5c0,0.3-0.4,0.3-0.9,0.1
			l-29.6-12.2c-0.5-0.2-0.9-0.8-0.9-1.4l0.1-2.9c0-0.5-0.4-1.1-0.9-1.3l-4.6-1.5c-0.5-0.2-0.9-0.8-0.9-1.3l0.1-18.4
			c0-0.5-0.1-1-0.3-1s-0.3-0.2-0.3-0.4c0-0.2-0.4-0.4-1-0.4h-0.6c-0.5,0-1-0.3-1-0.6c0-0.3-0.3-0.6-0.6-0.6s-0.6-0.2-0.6-0.4
			s-0.4-0.4-1-0.4h-1.8c-0.6,0-1-0.2-1-0.4s-0.4-0.5-1-0.5l-2.4-0.2c-0.5,0-1-0.5-1-1.1v-11.8c0-0.5-0.1-1-0.3-1s-0.3,0.5-0.3,1
			v12.1c0,0.6-0.1,1-0.3,1s-0.3,0.5-0.3,1v0.4c0,0.5-0.4,1-1,1h-1.2c-0.6,0-1.2,0.4-1.4,0.9l-1,2.6c-0.2,0.5-0.8,1.1-1.3,1.2l-1,0.3
			c-0.5,0.2-1,0.7-1,1.3V223c0,0.5-0.4,1.3-0.8,1.6l-6.9,5.3c-0.4,0.3-0.8,1.1-0.8,1.6v11.2c0,0.6,0.4,1.2,0.9,1.4l6.7,3
			c0.5,0.2,0.9,0.9,0.9,1.4l-1,85c0,0.5,0.4,1,1,1c0,0,13.8,0.2,20.6,0"/>
	</g>
	<g>
		<path class="st8" d="M125.1,319l-1-63c0-0.5,0.4-0.8,0.9-0.6l35.5,13.7c0.5,0.2,1.4,0.3,1.9,0.1l12.5-3.1c0.5-0.1,1.2-0.6,1.5-1.1
			l0.5-0.9c0.3-0.5,0.9-1,1.5-1.1l3.6-0.8c0.5-0.1,1.4,0,1.9,0.3l16.7,9"/>
	</g>
	<path class="st3" d="M116,325.5c-0.6-12.3,0.2-43.1-0.6-55.4c0-8.6-0.4-16.9,0.2-25.4"/>
	<polyline class="st3" points="123.8,223.2 112.3,220.3 110.3,222.7 107.6,221.8 106.1,223.2 	"/>
	<path class="st2" d="M123.8,245.6"/>
	<polyline class="st3" points="98.5,240 107.9,232.1 110,232.1 112.6,230.3 131.1,236.5 123.8,241.8 	"/>
	<polyline class="st3" points="106.1,245.6 112.9,240 117.6,240 122.6,241.5 	"/>
	<line class="st3" x1="123.8" y1="245.6" x2="175.8" y2="265.9"/>
	<line class="st3" x1="123.8" y1="244.1" x2="123.8" y2="252.1"/>
	<polyline class="st3" points="166.4,244.7 173.5,247.1 185.5,244.7 205.5,255.9 	"/>
	<line class="st3" x1="180.5" y1="230.5" x2="180.5" y2="238.7"/>
	<line class="st3" x1="176.7" y1="230.5" x2="176.7" y2="241.9"/>
	<line class="st3" x1="186.1" y1="229.6" x2="186.1" y2="240.5"/>
	<path class="st2" d="M178.8,290.3"/>
	<polyline class="st3" points="183.5,259.7 186.1,253.8 203.5,263.5 	"/>
	<line class="st3" x1="186.1" y1="253.8" x2="174.4" y2="257.7"/>
	<line class="st3" x1="133.8" y1="242.1" x2="170" y2="256.8"/>
	<line class="st3" x1="114.4" y1="218" x2="114.4" y2="202.1"/>
	<line class="st3" x1="109.7" y1="205.9" x2="109.7" y2="220.3"/>
	<path class="st2" d="M131.1,232.1"/>
	<path class="st2" d="M172.6,214.4"/>
	<path class="st2" d="M103.8,197.7"/>
</g>
<path class="st9" d="M125,334"/>
<path class="st7" d="M124.5,334.5h567.7c1.6,0,2.8-1.3,2.8-2.8v-69.4c0-1.6-1.3-2.8-2.8-2.8H210.5"/>
<g>
	<path class="st10" d="M823.2,433.9l-3.1,7.2c-2.5-0.9-5.1-1.4-8-1.4c-2.2,0-3.8,0.4-4.7,1.2c-0.9,0.8-1.4,2.1-1.4,4v5h12.1
		l-1.2,7.7H806v27.2h-11v-27.2h-7.8v-7.7h7.8v-5.4c0-2.5,0.6-4.7,1.8-6.7c1.2-2,2.9-3.5,5.3-4.6c2.3-1.1,5.1-1.7,8.4-1.7
		C815.3,431.5,819.6,432.3,823.2,433.9z"/>
	<path class="st10" d="M839.9,473c0,1.7,0.3,3,0.9,3.7c0.6,0.7,1.6,1.1,2.8,1.1c1.1,0,2.3-0.4,3.4-1.1c1.1-0.7,2.1-1.7,2.9-2.9
		v-26.2h11.1v37.3h-9.7l-0.5-4.4c-1.2,1.8-2.9,3.1-4.9,4.1c-2,1-4.2,1.4-6.5,1.4c-3.5,0-6.2-1-8-3.1c-1.8-2-2.7-4.9-2.7-8.5v-26.9
		h11.1V473z"/>
	<path class="st10" d="M871,484.8v-37.3h9.7l0.8,4.3c1.7-1.9,3.5-3.3,5.3-4.2c1.8-0.9,3.9-1.4,6.3-1.4c3.2,0,5.7,1,7.5,2.9
		c1.8,2,2.7,4.7,2.7,8.2v27.4h-11.1v-24.2c0-1.5-0.1-2.8-0.3-3.7c-0.2-0.9-0.6-1.5-1.1-1.9c-0.5-0.4-1.2-0.6-2.1-0.6
		c-1.1,0-2.2,0.4-3.3,1.1c-1.1,0.7-2.1,1.8-3.2,3.2v26.1H871z"/>
	<path class="st10" d="M937,476.4c1.3-0.5,2.7-1.3,4.2-2.4l5,7c-1.8,1.5-3.8,2.7-6.2,3.6c-2.4,0.9-4.9,1.3-7.7,1.3
		c-4,0-7.4-0.8-10.3-2.5c-2.9-1.6-5.1-3.9-6.7-6.9c-1.5-2.9-2.3-6.4-2.3-10.3c0-3.9,0.8-7.3,2.4-10.4c1.6-3,3.9-5.4,6.8-7.1
		c2.9-1.7,6.4-2.6,10.3-2.6c2.8,0,5.3,0.4,7.5,1.2c2.2,0.8,4.3,1.9,6.2,3.5l-4.8,6.7c-2.7-1.9-5.5-2.8-8.4-2.8
		c-2.6,0-4.7,0.9-6.2,2.8c-1.5,1.8-2.2,4.8-2.2,8.8c0,3.9,0.7,6.7,2.2,8.3c1.5,1.7,3.5,2.5,6.1,2.5C934.3,477.3,935.7,477,937,476.4
		z"/>
	<path class="st10" d="M956.7,447.5H978v29.7h9.5v7.6h-31.1v-7.6h10.6v-22.1h-10.2V447.5z M974.7,428.8c1,0.6,1.8,1.3,2.3,2.2
		s0.8,2,0.8,3.2c0,1.2-0.3,2.2-0.8,3.2s-1.3,1.7-2.3,2.3c-1,0.6-2.1,0.8-3.4,0.8c-1.3,0-2.4-0.3-3.4-0.8c-1-0.5-1.8-1.3-2.4-2.3
		c-0.6-1-0.8-2-0.8-3.2c0-1.2,0.3-2.2,0.8-3.2c0.6-0.9,1.3-1.7,2.4-2.2c1-0.5,2.1-0.8,3.4-0.8S973.7,428.3,974.7,428.8z"/>
	<path class="st10" d="M1023.3,448.7c2.7,1.6,4.8,3.9,6.2,6.9c1.4,3,2.1,6.4,2.1,10.4c0,4.1-0.7,7.7-2.2,10.7
		c-1.4,3-3.5,5.3-6.2,6.9c-2.7,1.6-6,2.4-9.7,2.4c-3.8,0-7-0.8-9.8-2.4c-2.7-1.6-4.8-3.8-6.2-6.8c-1.4-3-2.1-6.5-2.1-10.7
		c0-4,0.7-7.4,2.2-10.4c1.4-3,3.5-5.3,6.2-7c2.7-1.7,6-2.5,9.7-2.5C1017.3,446.3,1020.5,447.1,1023.3,448.7z M1008.5,457.3
		c-1.1,1.9-1.6,4.8-1.6,8.8c0,4.1,0.5,7.1,1.6,8.9c1.1,1.9,2.8,2.8,5.1,2.8c2.3,0,4-0.9,5.1-2.8c1.1-1.9,1.6-4.9,1.6-9
		c0-4-0.5-6.9-1.6-8.8c-1.1-1.9-2.8-2.8-5-2.8C1011.2,454.5,1009.6,455.4,1008.5,457.3z"/>
	<path class="st0" d="M1052.5,447.5c-0.7-1.9-1.5-3.3-2.4-4.4c-0.9-1.1-2.1-1.9-3.5-2.5c-1.5-0.6-3.5-1.1-6-1.5l1.3-7.6
		c4.7,0.6,8.5,1.6,11.3,3c2.8,1.4,5,3.6,6.6,6.4c1.7,2.8,3.1,6.7,4.3,11.8c1.3,5.2,2.5,9.6,3.7,13.2c1.2,3.6,2.5,6.8,3.8,9.4
		c1.3,2.6,2.8,5,4.5,7.1l-11,3.5c-1.6-2.4-3-5-4.2-7.8c-1.2-2.8-2.2-6-3.1-9.6c-0.9-3.6-1.7-8-2.6-13.2l-7.8,30.6l-11-2.6l12.4-35.9
		H1052.5z"/>
	<path class="st10" d="M1113,474.1c0,1.4,0.2,2.4,0.6,3c0.4,0.6,1,1.1,1.9,1.5l-2.3,7.3c-2.3-0.2-4.1-0.7-5.6-1.5
		c-1.5-0.8-2.7-1.9-3.5-3.4c-1.4,1.7-3.2,2.9-5.4,3.8c-2.2,0.9-4.5,1.3-6.9,1.3c-2.5,0-4.7-0.5-6.7-1.5c-1.9-1-3.4-2.4-4.4-4.1
		c-1-1.8-1.5-3.8-1.5-6.1c0-2.7,0.7-5,2.1-6.8c1.4-1.9,3.5-3.3,6.2-4.3c2.7-1,6-1.5,9.8-1.5h5v-1.4c0-3.8-2.5-5.7-7.4-5.7
		c-1.2,0-2.8,0.2-4.7,0.5c-1.9,0.4-3.7,0.8-5.5,1.4l-2.6-7.4c2.3-0.9,4.8-1.6,7.4-2.1c2.6-0.5,5-0.7,7.1-0.7c5.5,0,9.6,1.1,12.3,3.3
		c2.7,2.2,4,5.5,4,9.8V474.1z M1099.4,477c1.3-0.7,2.3-1.7,2.9-3v-6h-2.7c-3,0-5.3,0.5-6.8,1.4c-1.5,0.9-2.2,2.3-2.2,4.2
		c0,1.5,0.4,2.6,1.3,3.4c0.9,0.8,2.1,1.2,3.7,1.2C1096.9,478.1,1098.1,477.7,1099.4,477z"/>
	<path class="st10" d="M1143.2,473.1c0,1.5,0.4,2.5,1.2,3.2c0.8,0.7,2,1,3.6,1c1.7,0,3.4-0.4,5.3-1.1l2.7,7.4
		c-3.1,1.6-6.7,2.5-10.8,2.5c-4.4,0-7.6-1.3-9.8-3.8c-2.2-2.5-3.2-6-3.2-10.5v-31.4h-11v-7.6h22.1V473.1z"/>
	<path class="st10" d="M1194,431.8c3.2,2.4,5.5,5.7,6.9,10c1.4,4.3,2.1,9.5,2.1,15.7c0,6.3-0.3,11.4-0.9,15.3
		c-0.6,3.9-1.7,6.9-3.4,9c-1.6,2-3.9,3.1-6.8,3.1c-2.5,0-4.5-0.9-5.9-2.7c-1.4-1.8-2.2-4.1-2.6-7h-0.3c-0.8,1.9-2.1,3.5-3.8,4.7
		c-1.7,1.2-3.7,1.8-6.1,1.8c-3.9,0-6.8-1.4-8.6-4.3c-1.8-2.9-2.7-6.8-2.7-11.7c0-5.9,1.2-10.6,3.7-13.9c2.5-3.3,6.2-5,11.2-5
		c1.9,0,3.9,0.3,5.9,0.8c2,0.5,4,1.3,5.9,2.3v21.1c0,2.6,0.2,4.4,0.7,5.4c0.4,1.1,1.2,1.6,2.1,1.6c0.9,0,1.5-0.6,1.9-1.9
		s0.7-3.2,0.8-5.9c0.1-2.6,0.2-6.7,0.2-12.1c0-5.2-0.4-9.5-1.2-12.8c-0.8-3.3-2.2-5.8-4.2-7.5c-2-1.7-4.9-2.6-8.5-2.6
		c-2.6,0-5.1,0.5-7.6,1.5c-2.5,1-5.1,2.7-7.7,4.9l-4.4-5.2c3.2-2.8,6.4-4.9,9.7-6.2c3.3-1.3,6.8-1.9,10.6-1.9
		C1186.5,428.3,1190.8,429.4,1194,431.8z M1173.9,454.8c-0.7,0.7-1.2,2-1.4,3.7c-0.3,1.7-0.4,4.1-0.4,7.2c0,2.2,0.1,3.9,0.3,5.2
		c0.2,1.3,0.6,2.3,1.1,2.9c0.5,0.6,1.2,0.9,2,0.9c1.4,0,2.4-0.5,2.9-1.4c0.5-0.9,0.9-2.1,1.1-3.6v-15.4c-0.5-0.2-0.9-0.4-1.3-0.5
		c-0.4-0.1-0.9-0.2-1.4-0.2C1175.5,453.6,1174.5,454,1173.9,454.8z"/>
	<path class="st10" d="M1227.5,477.2c1.1-0.6,1.7-1.5,1.7-2.6c0-0.8-0.2-1.5-0.7-2c-0.4-0.5-1.3-1-2.5-1.5c-1.2-0.5-3.1-1.1-5.7-1.8
		c-3.7-1-6.6-2.4-8.6-4.1c-2-1.8-3-4.2-3-7.3c0-2.2,0.6-4.2,1.9-6c1.3-1.7,3.1-3.1,5.5-4.1c2.4-1,5.4-1.5,8.8-1.5
		c5.9,0,11,1.5,15.1,4.5l-4.4,6.5c-1.6-1-3.3-1.8-5.1-2.3c-1.8-0.6-3.5-0.8-5.3-0.8c-1.8,0-3.1,0.2-4,0.7c-0.9,0.5-1.3,1.2-1.3,2.2
		c0,0.7,0.2,1.2,0.7,1.7c0.5,0.4,1.3,0.9,2.5,1.4c1.2,0.5,3.1,1.1,5.6,1.8c2.7,0.7,4.9,1.6,6.6,2.5c1.7,0.9,3,2.1,3.9,3.6
		c0.9,1.5,1.4,3.4,1.4,5.7c0,2.6-0.8,4.9-2.4,6.7c-1.6,1.9-3.7,3.3-6.4,4.2c-2.7,0.9-5.6,1.4-8.9,1.4c-3.5,0-6.6-0.5-9.4-1.5
		c-2.8-1-5.2-2.4-7.2-4.1l5.6-6.2c1.5,1.2,3.2,2.2,5.1,2.9c1.8,0.7,3.8,1.1,5.9,1.1C1224.9,478.1,1226.4,477.8,1227.5,477.2z"/>
	<path class="st10" d="M1269.6,477.2c1.1-0.6,1.7-1.5,1.7-2.6c0-0.8-0.2-1.5-0.7-2c-0.4-0.5-1.3-1-2.5-1.5c-1.2-0.5-3.1-1.1-5.7-1.8
		c-3.7-1-6.6-2.4-8.6-4.1c-2-1.8-3-4.2-3-7.3c0-2.2,0.6-4.2,1.9-6c1.3-1.7,3.1-3.1,5.5-4.1c2.4-1,5.4-1.5,8.8-1.5
		c5.9,0,11,1.5,15.1,4.5l-4.4,6.5c-1.6-1-3.3-1.8-5.1-2.3c-1.8-0.6-3.5-0.8-5.3-0.8c-1.8,0-3.1,0.2-4,0.7c-0.9,0.5-1.3,1.2-1.3,2.2
		c0,0.7,0.2,1.2,0.7,1.7c0.5,0.4,1.3,0.9,2.5,1.4c1.2,0.5,3.1,1.1,5.6,1.8c2.7,0.7,4.9,1.6,6.6,2.5c1.7,0.9,3,2.1,3.9,3.6
		c0.9,1.5,1.4,3.4,1.4,5.7c0,2.6-0.8,4.9-2.4,6.7c-1.6,1.9-3.7,3.3-6.4,4.2c-2.7,0.9-5.6,1.4-8.9,1.4c-3.5,0-6.6-0.5-9.4-1.5
		c-2.8-1-5.2-2.4-7.2-4.1l5.6-6.2c1.5,1.2,3.2,2.2,5.1,2.9c1.8,0.7,3.8,1.1,5.9,1.1C1267,478.1,1268.5,477.8,1269.6,477.2z"/>
	<path class="st10" d="M1323.7,474.1c0,1.4,0.2,2.4,0.6,3c0.4,0.6,1,1.1,1.9,1.5l-2.3,7.3c-2.3-0.2-4.1-0.7-5.6-1.5
		c-1.5-0.8-2.7-1.9-3.5-3.4c-1.4,1.7-3.2,2.9-5.4,3.8c-2.2,0.9-4.5,1.3-6.9,1.3c-2.5,0-4.7-0.5-6.7-1.5c-1.9-1-3.4-2.4-4.4-4.1
		c-1-1.8-1.5-3.8-1.5-6.1c0-2.7,0.7-5,2.1-6.8c1.4-1.9,3.5-3.3,6.2-4.3c2.7-1,6-1.5,9.8-1.5h5v-1.4c0-3.8-2.5-5.7-7.4-5.7
		c-1.2,0-2.8,0.2-4.7,0.5c-1.9,0.4-3.7,0.8-5.5,1.4l-2.6-7.4c2.3-0.9,4.8-1.6,7.4-2.1c2.6-0.5,5-0.7,7.1-0.7c5.5,0,9.6,1.1,12.3,3.3
		c2.7,2.2,4,5.5,4,9.8V474.1z M1310.1,477c1.3-0.7,2.3-1.7,2.9-3v-6h-2.7c-3,0-5.3,0.5-6.8,1.4c-1.5,0.9-2.2,2.3-2.2,4.2
		c0,1.5,0.4,2.6,1.3,3.4c0.9,0.8,2.1,1.2,3.7,1.2C1307.5,478.1,1308.8,477.7,1310.1,477z"/>
</g>
<g>
	<path class="st7" d="M865.5,413.5h-7l-0.3-17.7l-22.3-15l-5,2.4l-4.1-3.2l-12.1,4.4v5.3h-0.6v2.4h0.9v4.7h-1v1l-31.5-12.9l0.1-4.9
		l-6.5-2.1l0.1-20.4h-0.6v-0.9h-2.6v-1.2h-1.2v-0.9h-3.8v-0.9l-4.4-0.3v-13.8h-0.6v14.1h-0.6v2.4h-3.2l-1.8,4.4l-2.9,0.9V378
		l-8.5,6.5v13.2l8.5,3.8l0,91.5v6h20h562.7c1.5,0,2.8-1.4,2.8-3.2v-79.2c0-1.8-1.2-3.2-2.8-3.2H859.7"/>
	<g>
		<path class="st8" d="M775.1,473l-1-63c0-0.5,0.4-0.8,0.9-0.6l35.5,13.7c0.5,0.2,1.4,0.3,1.9,0.1l12.5-3.1c0.5-0.1,1.2-0.6,1.5-1.1
			l0.5-0.9c0.3-0.5,0.9-1,1.5-1.1l3.6-0.8c0.5-0.1,1.4,0,1.9,0.3l16.7,9"/>
	</g>
	<path class="st3" d="M766,479.5c-0.6-12.3,0.2-43.1-0.6-55.4c0-8.6-0.4-16.9,0.2-25.4"/>
	<polyline class="st3" points="773.8,377.2 762.3,374.3 760.3,376.7 757.6,375.8 756.1,377.2 	"/>
	<path class="st2" d="M773.8,399.6"/>
	<polyline class="st3" points="748.5,394 757.9,386.1 760,386.1 762.6,384.3 781.1,390.5 773.8,395.8 	"/>
	<polyline class="st3" points="756.1,399.6 762.9,394 767.6,394 772.6,395.5 	"/>
	<line class="st3" x1="773.8" y1="399.6" x2="825.8" y2="419.9"/>
	<line class="st3" x1="773.8" y1="398.1" x2="773.8" y2="406.1"/>
	<polyline class="st3" points="816.4,398.7 823.5,401.1 835.5,398.7 855.5,409.9 	"/>
	<line class="st3" x1="830.5" y1="384.5" x2="830.5" y2="392.7"/>
	<line class="st3" x1="826.7" y1="384.5" x2="826.7" y2="395.9"/>
	<line class="st3" x1="836.1" y1="383.6" x2="836.1" y2="394.5"/>
	<path class="st2" d="M828.8,444.3"/>
	<polyline class="st3" points="833.5,413.7 836.1,407.8 853.5,417.5 	"/>
	<line class="st3" x1="836.1" y1="407.8" x2="824.4" y2="411.7"/>
	<line class="st3" x1="783.8" y1="396.1" x2="820" y2="410.8"/>
	<line class="st3" x1="764.4" y1="372" x2="764.4" y2="356.1"/>
	<line class="st3" x1="759.7" y1="359.9" x2="759.7" y2="374.3"/>
	<path class="st2" d="M781.1,386.1"/>
	<path class="st2" d="M822.6,368.4"/>
	<path class="st2" d="M753.8,351.7"/>
</g>
<g>
	<path class="st9" d="M124,172"/>
	<path class="st7" d="M137.3,97.5"/>
	<path class="st7" d="M214.5,97.5"/>
	<path class="st7" d="M214.9,98.4c-0.1-0.6-0.2-0.9-0.3-0.9"/>
	<g>
		<g>
			<g>
				<path class="st7" d="M214.5,97.5h-6c-0.6,0-1-0.4-1-1l-0.3-15.7c0-0.5-0.4-1.3-0.8-1.6l-20.7-13.9c-0.5-0.3-1.2-0.4-1.7-0.1
					l-3.2,1.5c-0.5,0.2-1.3,0.1-1.7-0.2l-2.5-2c-0.4-0.3-1.2-0.5-1.7-0.3L164.6,68c-0.5,0.2-0.9,0.8-0.9,1.3v3.3c0,0.6-0.1,1-0.3,1
					c-0.2,0-0.3,0.5-0.3,1V75c0,0.5,0.2,1,0.4,1s0.4,0.4,0.4,1v2.7c0,0.6-0.2,1-0.5,1c-0.3,0-0.5,0.2-0.5,0.5c0,0.3-0.4,0.3-0.9,0.1
					l-29.6-12.2c-0.5-0.2-0.9-0.8-0.9-1.4l0.1-2.9c0-0.5-0.4-1.1-0.9-1.3l-4.6-1.5c-0.5-0.2-0.9-0.8-0.9-1.3l0.1-18.4
					c0-0.5-0.1-1-0.3-1s-0.3-0.2-0.3-0.4s-0.4-0.4-1-0.4h-0.6c-0.5,0-1-0.3-1-0.6s-0.3-0.6-0.6-0.6s-0.6-0.2-0.6-0.4s-0.4-0.4-1-0.4
					h-1.8c-0.6,0-1-0.2-1-0.4s-0.4-0.5-1-0.5l-2.4-0.2c-0.5,0-1-0.5-1-1.1V24.5c0-0.6-0.1-1-0.3-1s-0.3,0.4-0.3,1v12.1
					c0,0.5-0.1,1-0.3,1s-0.3,0.4-0.3,1v0.4c0,0.5-0.4,1-1,1h-1.2c-0.6,0-1.2,0.4-1.4,0.9l-1,2.6c-0.2,0.5-0.8,1.1-1.3,1.2l-1,0.3
					c-0.5,0.2-1,0.7-1,1.3V61c0,0.6-0.4,1.3-0.8,1.6l-6.9,5.3c-0.4,0.3-0.8,1.1-0.8,1.6v11.2c0,0.5,0.4,1.2,0.9,1.4l6.7,3
					c0.5,0.2,0.9,0.9,0.9,1.4l-1,85c0,0.5,0.4,1,1,1c0,0,13.8,0.2,20.6,0"/>
			</g>
			<g>
				<path class="st8" d="M124.1,157l-1-63c0-0.5,0.4-0.8,0.9-0.6l35.5,13.7c0.5,0.2,1.4,0.3,1.9,0.1l12.5-3.1
					c0.5-0.1,1.2-0.6,1.5-1.1l0.5-0.9c0.3-0.5,0.9-1,1.5-1.1l3.6-0.8c0.5-0.1,1.4,0,1.9,0.3l16.7,9"/>
			</g>
			<path class="st3" d="M115,163.5c-0.6-12.3,0.2-43.1-0.6-55.4c0-8.6-0.4-16.9,0.2-25.4"/>
			<polyline class="st3" points="122.8,61.2 111.3,58.3 109.3,60.7 106.6,59.8 105.1,61.2 			"/>
			<path class="st2" d="M122.8,83.6"/>
			<polyline class="st3" points="97.5,78 106.9,70.1 109,70.1 111.6,68.3 130.1,74.5 122.8,79.8 			"/>
			<polyline class="st3" points="105.1,83.6 111.9,78 116.6,78 121.6,79.5 			"/>
			<line class="st3" x1="122.8" y1="83.6" x2="174.8" y2="103.9"/>
			<line class="st3" x1="122.8" y1="82.1" x2="122.8" y2="90.1"/>
			<polyline class="st3" points="165.4,82.7 172.5,85.1 184.5,82.7 204.5,93.9 			"/>
			<line class="st3" x1="179.5" y1="68.5" x2="179.5" y2="76.7"/>
			<line class="st3" x1="175.7" y1="68.5" x2="175.7" y2="79.9"/>
			<line class="st3" x1="185.1" y1="67.6" x2="185.1" y2="78.5"/>
			<path class="st2" d="M177.8,128.3"/>
			<polyline class="st3" points="182.5,97.7 185.1,91.8 202.5,101.5 			"/>
			<line class="st3" x1="185.1" y1="91.8" x2="173.4" y2="95.7"/>
			<line class="st3" x1="132.8" y1="80.1" x2="169" y2="94.8"/>
			<line class="st3" x1="113.4" y1="56" x2="113.4" y2="40.1"/>
			<line class="st3" x1="108.7" y1="43.9" x2="108.7" y2="58.3"/>
			<path class="st2" d="M130.1,70.1"/>
			<path class="st2" d="M171.6,52.4"/>
			<path class="st2" d="M102.8,35.7"/>
		</g>
		<path class="st7" d="M123.5,172.5h91c0.2,0,0.5-1.3,0.5-2.8v-69.4c0-0.7,0-1.4-0.1-1.9"/>
	</g>
</g>
<text transform="matrix(1 0 0 1 144.4707 158.8237)" class="st0 st5 st11">λ</text>
</svg>
